<svg xmlns="http://www.w3.org/2000/svg" width="100%" height="100%" viewBox="235 205 555 425">
<defs>
    <linearGradient id="logo-gradient" x1="0%" y1="0%" x2="100%" y2="100%">
      <stop offset="0%" stop-color="#6366f1" />
      <stop offset="100%" stop-color="#22d3ee" />
    </linearGradient>
  </defs>
<g>
<path d="M 306.97 622.66 C299.37,621.00 292.85,616.92 288.71,611.26 C284.34,605.30 260.96,568.28 249.20,548.72 C244.96,541.66 243.78,532.04 246.26,524.76 C247.54,521.00 273.09,476.28 311.64,410.32 C317.10,400.98 322.70,392.70 324.90,390.71 C332.79,383.58 327.36,383.93 427.18,384.23 L 516.86 384.50 L 502.18 409.75 L 487.50 434.99 L 428.81 435.00 L 370.11 435.00 L 367.64 437.25 C366.28,438.49 356.75,454.35 346.47,472.50 C336.18,490.65 324.16,511.55 319.74,518.95 C312.71,530.74 311.84,532.72 312.69,534.95 C313.83,537.90 328.37,561.48 332.92,567.75 L 336.01 572.00 L 377.94 572.00 C401.00,572.00 420.95,571.59 422.28,571.09 C424.97,570.06 425.76,568.88 443.21,539.50 C509.73,427.55 530.27,393.92 534.16,390.59 C542.18,383.73 539.73,383.92 618.59,384.22 L 689.50 384.50 L 694.83 387.45 C697.77,389.08 701.25,391.70 702.58,393.28 C707.33,398.92 722.07,424.65 721.46,426.23 C721.13,427.09 721.34,428.09 721.92,428.45 C722.58,428.86 722.76,428.42 722.41,427.30 C721.90,425.69 722.01,425.71 723.42,427.44 C725.26,429.71 725.51,431.44 723.85,430.40 C723.12,429.96 722.96,430.13 723.41,430.86 C723.81,431.51 724.50,431.81 724.95,431.53 C725.65,431.10 741.00,455.96 741.00,457.54 C741.00,457.86 740.48,457.80 739.85,457.40 C739.12,456.96 738.96,457.13 739.41,457.86 C739.81,458.51 740.53,458.79 741.02,458.49 C742.22,457.74 744.26,461.77 743.39,463.18 C742.98,463.83 743.13,464.03 743.75,463.65 C744.35,463.28 746.14,465.37 747.90,468.48 C751.31,474.53 751.61,475.47 749.75,474.40 C749.02,473.98 748.85,474.06 749.33,474.59 C749.79,475.09 750.55,475.50 751.02,475.50 C751.83,475.50 763.00,493.26 763.00,494.53 C763.00,494.85 762.48,494.80 761.85,494.40 C761.12,493.96 760.96,494.13 761.41,494.86 C761.81,495.51 762.53,495.79 763.02,495.49 C764.31,494.69 766.09,498.56 765.40,500.68 C764.95,502.07 765.04,502.18 765.80,501.11 C766.60,499.99 767.00,500.13 767.94,501.89 C768.57,503.07 768.78,504.55 768.39,505.18 C767.98,505.84 768.14,506.03 768.76,505.65 C769.36,505.28 770.94,506.99 772.41,509.62 C775.32,514.82 775.50,515.43 773.85,514.40 C773.12,513.96 772.96,514.13 773.41,514.86 C773.81,515.51 774.51,515.80 774.97,515.52 C776.33,514.68 781.03,523.62 782.21,529.28 C783.09,533.52 783.00,535.53 781.69,540.02 C779.83,546.39 769.64,563.63 767.97,563.23 C767.36,563.07 767.13,563.41 767.48,563.96 C768.13,565.02 763.09,574.43 762.30,573.63 C762.05,573.38 762.60,571.90 763.54,570.34 L 765.24 567.50 L 763.14 570.00 C761.98,571.38 761.25,573.09 761.51,573.81 C762.13,575.53 759.18,581.23 758.03,580.52 C757.54,580.21 756.81,580.49 756.41,581.14 C755.96,581.87 756.12,582.04 756.85,581.60 C758.46,580.60 758.29,582.24 756.53,584.56 C755.63,585.76 755.05,586.00 755.03,585.19 C755.01,584.47 754.50,584.19 753.89,584.57 C753.10,585.05 753.14,585.47 754.01,586.00 C754.91,586.56 754.52,587.97 752.52,591.38 C751.03,593.92 749.43,595.77 748.97,595.48 C748.51,595.20 747.81,595.49 747.41,596.14 C746.96,596.87 747.12,597.04 747.85,596.60 C749.71,595.44 749.22,596.79 745.39,603.33 C739.96,612.59 736.65,616.33 731.32,619.23 C722.76,623.89 718.38,624.12 646.50,623.78 C583.79,623.48 579.19,623.34 574.59,621.58 C566.19,618.36 561.57,612.62 544.53,584.14 C535.85,569.64 528.55,557.00 528.30,556.05 C527.87,554.39 567.47,486.98 568.86,487.01 C569.21,487.02 580.62,505.62 594.21,528.33 C612.37,558.70 619.60,569.95 621.51,570.82 C624.86,572.35 691.21,572.50 694.03,570.98 C695.08,570.42 697.12,567.95 698.56,565.48 C700.03,562.98 701.66,561.29 702.25,561.65 C702.87,562.04 703.01,561.83 702.60,561.16 C702.20,560.51 704.72,555.47 708.29,549.75 C716.58,536.50 717.27,535.14 716.58,533.34 C716.09,532.07 687.80,484.36 665.08,446.50 L 658.48 435.50 L 617.17 435.50 C581.53,435.50 575.73,435.71 574.92,437.00 C572.32,441.15 561.53,459.55 551.75,476.50 C545.72,486.95 537.07,501.80 532.53,509.50 C527.99,517.20 520.99,529.12 516.98,536.00 C512.96,542.88 507.82,551.65 505.54,555.50 C503.26,559.35 495.12,573.24 487.45,586.37 C479.78,599.49 471.87,611.92 469.89,613.98 C467.90,616.03 463.63,619.02 460.39,620.61 L 454.50 623.50 L 383.50 623.69 C330.95,623.83 311.06,623.56 306.97,622.66 ZM 759.38 577.45 C759.72,576.56 759.56,576.16 758.99,576.51 C758.44,576.84 758.00,577.54 758.00,578.06 C758.00,579.50 758.72,579.18 759.38,577.45 ZM 772.13 556.75 C773.22,554.71 773.17,554.63 771.66,555.87 C770.75,556.63 770.00,557.64 770.00,558.12 C770.00,559.65 770.89,559.08 772.13,556.75 ZM 776.50 550.00 C776.84,549.45 776.64,549.00 776.06,549.00 C775.48,549.00 775.00,549.45 775.00,550.00 C775.00,550.55 775.20,551.00 775.44,551.00 C775.68,551.00 776.16,550.55 776.50,550.00 ZM 779.87 542.13 C779.66,541.54 778.93,542.28 778.24,543.76 C777.07,546.25 777.10,546.33 778.60,544.83 C779.50,543.93 780.07,542.72 779.87,542.13 ZM 781.48 530.75 C781.09,528.41 780.35,525.83 779.84,525.00 C779.11,523.83 779.01,523.94 779.40,525.50 C779.67,526.60 780.19,529.19 780.56,531.25 C780.92,533.31 781.44,535.00 781.70,535.00 C781.96,535.00 781.86,533.09 781.48,530.75 ZM 771.34 510.00 C770.37,508.35 769.16,507.00 768.66,507.00 C768.16,507.00 768.26,507.60 768.87,508.34 C769.48,509.08 769.65,510.05 769.24,510.50 C768.83,510.95 769.02,511.03 769.65,510.67 C770.28,510.31 771.05,510.68 771.36,511.51 C771.68,512.33 772.20,513.00 772.53,513.00 C772.85,513.00 772.32,511.65 771.34,510.00 ZM 755.12 483.33 C753.94,481.30 753.66,481.95 754.62,484.46 C754.97,485.36 755.46,485.88 755.72,485.62 C755.97,485.36 755.71,484.33 755.12,483.33 ZM 753.00 479.00 C752.41,477.90 751.70,477.00 751.43,477.00 C751.15,477.00 751.41,477.90 752.00,479.00 C752.59,480.10 753.30,481.00 753.57,481.00 C753.85,481.00 753.59,480.10 753.00,479.00 ZM 748.35 471.46 C748.02,470.61 747.54,470.13 747.28,470.39 C747.01,470.65 747.10,471.35 747.46,471.93 C748.44,473.53 749.02,473.22 748.35,471.46 ZM 746.00 467.00 C745.41,465.90 744.70,465.00 744.43,465.00 C744.15,465.00 744.41,465.90 745.00,467.00 C745.59,468.10 746.30,469.00 746.57,469.00 C746.85,469.00 746.59,468.10 746.00,467.00 ZM 738.00 454.00 C737.41,452.90 736.70,452.00 736.43,452.00 C736.15,452.00 736.41,452.90 737.00,454.00 C737.59,455.10 738.30,456.00 738.57,456.00 C738.85,456.00 738.59,455.10 738.00,454.00 ZM 729.12 438.73 C728.14,437.75 728.02,437.87 728.56,439.29 C728.94,440.28 729.50,440.83 729.81,440.53 C730.11,440.22 729.81,439.41 729.12,438.73 ZM 357.00 363.89 C357.00,363.29 359.85,358.00 363.34,352.14 C369.93,341.08 397.17,294.02 422.48,250.00 C430.54,235.98 438.56,223.00 440.32,221.16 C442.07,219.32 445.75,216.62 448.50,215.16 L 453.50 212.50 L 512.00 212.50 L 570.50 212.50 L 575.49 215.00 C578.23,216.38 582.17,219.30 584.24,221.50 C586.31,223.70 598.17,242.82 610.61,264.00 C623.04,285.17 638.26,311.05 644.42,321.50 C662.79,352.64 667.86,361.41 668.55,363.25 C669.17,364.89 667.26,365.00 636.83,365.00 L 604.45 365.00 L 592.52 344.75 C554.27,279.80 545.62,265.81 543.16,264.87 C541.71,264.32 528.01,264.04 510.68,264.21 L 480.71 264.50 L 478.61 267.30 C477.45,268.85 466.04,288.20 453.25,310.30 C440.47,332.41 428.10,353.76 425.76,357.75 L 421.51 365.00 L 389.26 365.00 C366.36,365.00 357.00,364.68 357.00,363.89 Z" fill="url(#logo-gradient)"/>
</g>
</svg>