<svg xmlns="http://www.w3.org/2000/svg" width="512" height="512" viewBox="325 243 442 358">
  <defs>
    <linearGradient id="logo-gradient" x1="0%" y1="0%" x2="100%" y2="100%">
      <stop offset="0%" stop-color="#6366f1" />
      <stop offset="100%" stop-color="#22d3ee" />
    </linearGradient>
  </defs>
  <g>
    <path 
      d="M 355.77 575.75 C347.12,561.86 336.68,545.23 332.57,538.78 C328.46,532.34 325.46,526.84 325.91,526.56 C326.35,526.28 329.32,521.65 332.50,516.28 C335.68,510.90 352.89,482.09 370.75,452.25 L 403.21 398.00 L 467.58 398.00 L 531.95 398.00 L 529.13 402.75 C526.61,406.99 516.91,423.13 516.51,423.74 C516.42,423.88 494.89,424.07 468.67,424.17 L 421.00 424.36 L 407.13 447.43 C399.50,460.12 385.57,483.26 376.18,498.86 L 359.10 527.21 L 363.37 533.85 C373.32,549.34 383.01,564.80 385.33,568.89 L 387.82 573.28 L 420.16 573.70 L 452.50 574.11 L 485.23 519.31 C503.23,489.16 526.90,449.65 537.82,431.50 L 557.69 398.50 L 622.60 398.26 L 687.50 398.02 L 692.11 405.76 C701.59,421.67 760.55,517.74 765.67,525.61 C766.94,527.56 765.50,530.27 746.87,561.11 C735.78,579.47 725.82,595.96 724.75,597.75 L 722.80 601.00 L 676.48 601.00 L 630.15 601.00 L 625.71 593.75 C623.28,589.76 613.12,573.50 603.14,557.61 C593.16,541.73 585.00,528.40 585.00,528.00 C585.00,527.60 591.38,516.75 599.18,503.89 C619.21,470.84 623.01,464.52 628.05,455.76 L 632.50 448.02 L 643.54 448.01 L 654.57 448.00 L 657.47 453.36 L 660.37 458.73 L 654.53 468.11 C651.32,473.28 641.78,488.86 633.33,502.74 L 617.96 527.98 L 624.64 538.74 C628.31,544.66 634.65,554.72 638.73,561.11 L 646.15 572.71 L 655.23 573.36 C660.22,573.71 673.62,574.00 684.99,574.00 L 705.68 574.00 L 719.67 550.70 L 733.66 527.41 L 728.69 519.45 C725.96,515.08 718.90,503.62 713.00,494.00 C707.09,484.38 698.07,469.75 692.93,461.50 C687.80,453.25 680.56,441.55 676.85,435.50 L 670.11 424.50 L 622.55 424.41 L 575.00 424.32 L 567.15 437.41 C562.83,444.61 549.22,467.34 536.90,487.92 C524.58,508.50 508.79,534.83 501.82,546.42 C494.85,558.01 487.03,571.10 484.46,575.50 C481.88,579.90 477.31,587.44 474.30,592.25 L 468.82 601.00 L 420.16 601.00 L 371.50 600.99 L 355.77 575.75 Z M 420.68 374.25 C420.26,373.53 432.05,353.62 467.90,294.50 C476.91,279.65 487.31,262.33 491.01,256.00 L 497.74 244.50 L 544.30 244.24 L 590.86 243.98 L 599.10 257.74 C603.63,265.31 611.23,277.80 615.99,285.50 C620.75,293.20 628.61,306.02 633.46,314.00 C638.31,321.98 645.07,333.00 648.48,338.50 C665.18,365.39 669.87,373.40 669.40,374.16 C669.11,374.62 661.94,375.00 653.46,375.00 L 638.03 375.00 L 635.58 371.25 C633.28,367.73 614.88,337.59 586.77,291.29 L 574.50 271.08 L 544.50 271.07 L 514.50 271.06 L 510.90 277.28 C505.33,286.91 460.89,360.66 456.09,368.25 L 451.82 375.00 L 436.47 375.00 C428.03,375.00 420.92,374.66 420.68,374.25 Z" 
      fill="url(#logo-gradient)" 
      stroke="url(#logo-gradient)" 
      stroke-width="12" 
      stroke-linejoin="round"
    />
  </g>
</svg>